<?xml version="1.0" encoding="utf-8"?>
<svg xmlns="http://www.w3.org/2000/svg" style="margin: auto; background: transparent; display: block; shape-rendering: auto;" width="290" height="65" preserveAspectRatio="xMidYMid">
<style type="text/css">
  text {
    text-anchor: middle; font-size: 48px; opacity: 0;
  }
</style>
<g transform="translate(145,32.5)">
  <g transform="translate(0,0)"><g class="path" style="transform-origin: -51.36px -0.182571px; animation: 1s linear -0.55s infinite normal forwards running breath-ce46cb3f-a17e-4fdb-a447-d6f4f42af807; transform: scale(0.91);"><path d="M1.68-2.02L3.50-5.62L3.50-5.62Q4.75-4.51 6.65-3.84L6.65-3.84L6.65-3.84Q8.54-3.17 10.70-3.17L10.70-3.17L10.70-3.17Q13.39-3.17 14.76-4.06L14.76-4.06L14.76-4.06Q16.13-4.94 16.13-6.34L16.13-6.34L16.13-6.34Q16.13-7.06 15.86-7.68L15.86-7.68L15.86-7.68Q15.60-8.30 14.90-8.88L14.90-8.88L14.90-8.88Q14.21-9.46 13.01-10.01L13.01-10.01L13.01-10.01Q11.81-10.56 9.89-11.23L9.89-11.23L9.89-11.23Q6.34-12.43 4.61-14.09L4.61-14.09L4.61-14.09Q2.88-15.74 2.88-18.67L2.88-18.67L2.88-18.67Q2.88-20.11 3.53-21.36L3.53-21.36L3.53-21.36Q4.18-22.61 5.40-23.54L5.40-23.54L5.40-23.54Q6.62-24.48 8.38-25.01L8.38-25.01L8.38-25.01Q10.13-25.54 12.38-25.54L12.38-25.54L12.38-25.54Q14.83-25.54 16.68-25.03L16.68-25.03L16.68-25.03Q18.53-24.53 20.02-23.76L20.02-23.76L18.82-20.21L18.82-20.21Q17.52-20.98 15.86-21.46L15.86-21.46L15.86-21.46Q14.21-21.94 12.19-21.94L12.19-21.94L12.19-21.94Q9.70-21.94 8.40-20.93L8.40-20.93L8.40-20.93Q7.10-19.92 7.10-18.72L7.10-18.72L7.10-18.72Q7.10-18.14 7.32-17.66L7.32-17.66L7.32-17.66Q7.54-17.18 8.11-16.75L8.11-16.75L8.11-16.75Q8.69-16.32 9.65-15.89L9.65-15.89L9.65-15.89Q10.61-15.46 12.05-14.98L12.05-14.98L12.05-14.98Q14.40-14.16 16.03-13.32L16.03-13.32L16.03-13.32Q17.66-12.48 18.67-11.47L18.67-11.47L18.67-11.47Q19.68-10.46 20.11-9.29L20.11-9.29L20.11-9.29Q20.54-8.11 20.54-6.67L20.54-6.67L20.54-6.67Q20.54-4.99 19.82-3.65L19.82-3.65L19.82-3.65Q19.10-2.30 17.81-1.37L17.81-1.37L17.81-1.37Q16.51-0.43 14.66 0.07L14.66 0.07L14.66 0.07Q12.82 0.58 10.56 0.58L10.56 0.58L10.56 0.58Q7.68 0.58 5.42-0.14L5.42-0.14L5.42-0.14Q3.17-0.86 1.68-2.02L1.68-2.02" fill="#d51921" stroke="none" stroke-width="none" transform="translate(-62.470001220703125,12.297432250976563)" style="fill: rgb(213, 25, 33);"></path></g><g class="path" style="transform-origin: -20.375px -0.302567px; animation: 1s linear -0.44s infinite normal forwards running breath-ce46cb3f-a17e-4fdb-a447-d6f4f42af807; transform: scale(0.91);"><path d="M50.30-4.90L56.69-25.20L60.53-23.81L52.61 0L47.86 0L42.10-18.58L36.29 0L31.54 0L23.66-23.81L27.65-25.20L34.08-4.90L39.94-23.18L44.59-23.18L50.30-4.90" fill="#d51921" stroke="none" stroke-width="none" transform="translate(-62.470001220703125,12.297432250976563)" style="fill: rgb(213, 25, 33);"></path></g><g class="path" style="transform-origin: 5.26001px -0.182571px; animation: 1s linear -0.33s infinite normal forwards running breath-ce46cb3f-a17e-4fdb-a447-d6f4f42af807; transform: scale(0.91);"><path d="M69.89-24.96L69.89 0L65.57 0L65.57-24.96L69.89-24.96" fill="#d51921" stroke="none" stroke-width="none" transform="translate(-62.470001220703125,12.297432250976563)" style="fill: rgb(213, 25, 33);"></path></g><g class="path" style="transform-origin: 5.25497px -19.9576px; animation: 1s linear -0.22s infinite normal forwards running breath-ce46cb3f-a17e-4fdb-a447-d6f4f42af807; transform: scale(0.91);"><path d="M67.73-29.23L67.73-29.23L67.73-29.23Q66.48-29.23 65.59-30.12L65.59-30.12L65.59-30.12Q64.70-31.01 64.70-32.26L64.70-32.26L64.70-32.26Q64.70-33.65 65.52-34.46L65.52-34.46L65.52-34.46Q66.34-35.28 67.73-35.28L67.73-35.28L67.73-35.28Q68.98-35.28 69.86-34.39L69.86-34.39L69.86-34.39Q70.75-33.50 70.75-32.26L70.75-32.26L70.75-32.26Q70.75-30.86 69.94-30.05L69.94-30.05L69.94-30.05Q69.12-29.23 67.73-29.23" fill="#d51921" stroke="none" stroke-width="none" transform="translate(-62.470001220703125,12.297432250976563)" style="fill: rgb(213, 25, 33);"></path></g><g class="path" style="transform-origin: 25.585px -0.472565px; animation: 1s linear -0.11s infinite normal forwards running breath-ce46cb3f-a17e-4fdb-a447-d6f4f42af807; transform: scale(0.91);"><path d="M81.74-24.96L81.74-20.78L81.74-20.78Q83.09-22.80 85.18-24.17L85.18-24.17L85.18-24.17Q87.26-25.54 90.14-25.54L90.14-25.54L90.14-25.54Q94.37-25.54 96.46-22.99L96.46-22.99L96.46-22.99Q98.54-20.45 98.54-16.27L98.54-16.27L98.54 0L94.22 0L94.22-15.79L94.22-15.79Q94.22-18.53 92.98-20.14L92.98-20.14L92.98-20.14Q91.73-21.74 89.42-21.74L89.42-21.74L89.42-21.74Q88.32-21.74 87.26-21.34L87.26-21.34L87.26-21.34Q86.21-20.93 85.22-20.21L85.22-20.21L85.22-20.21Q84.24-19.49 83.40-18.53L83.40-18.53L83.40-18.53Q82.56-17.57 81.89-16.51L81.89-16.51L81.89 0L77.57 0L77.57-24.96L81.74-24.96" fill="#d51921" stroke="none" stroke-width="none" transform="translate(-62.470001220703125,12.297432250976563)" style="fill: rgb(213, 25, 33);"></path></g><g class="path" style="transform-origin: 52.99px 5.09743px; animation: 1s linear 0s infinite normal forwards running breath-ce46cb3f-a17e-4fdb-a447-d6f4f42af807; transform: scale(0.91);"><path d="M115.87-25.54L115.87-25.54L115.87-25.54Q118.03-25.54 119.74-24.82L119.74-24.82L119.74-24.82Q121.44-24.10 122.69-23.04L122.69-23.04L122.69-24.96L126.62-24.96L126.62-0.58L126.62-0.58Q126.62 2.54 125.81 4.75L125.81 4.75L125.81 4.75Q124.99 6.96 123.48 8.38L123.48 8.38L123.48 8.38Q121.97 9.79 119.86 10.46L119.86 10.46L119.86 10.46Q117.74 11.14 115.15 11.14L115.15 11.14L115.15 11.14Q112.90 11.14 110.83 10.61L110.83 10.61L110.83 10.61Q108.77 10.08 107.14 9.02L107.14 9.02L108.72 5.28L108.72 5.28Q109.87 6.19 111.41 6.79L111.41 6.79L111.41 6.79Q112.94 7.39 115.15 7.39L115.15 7.39L115.15 7.39Q118.56 7.39 120.50 5.62L120.50 5.62L120.50 5.62Q122.45 3.84 122.45-0.14L122.45-0.14L122.45-3.22L122.45-3.22Q121.49-2.06 119.69-1.03L119.69-1.03L119.69-1.03Q117.89 0 115.39 0L115.39 0L115.39 0Q113.28 0 111.26-0.84L111.26-0.84L111.26-0.84Q109.25-1.68 107.71-3.29L107.71-3.29L107.71-3.29Q106.18-4.90 105.24-7.22L105.24-7.22L105.24-7.22Q104.30-9.55 104.30-12.58L104.30-12.58L104.30-12.58Q104.30-15.36 105.22-17.74L105.22-17.74L105.22-17.74Q106.13-20.11 107.69-21.84L107.69-21.84L107.69-21.84Q109.25-23.57 111.36-24.55L111.36-24.55L111.36-24.55Q113.47-25.54 115.87-25.54zM116.35-3.84L116.35-3.84L116.35-3.84Q118.27-3.84 119.81-4.70L119.81-4.70L119.81-4.70Q121.34-5.57 122.30-6.72L122.30-6.72L122.30-19.78L122.30-19.78Q121.20-20.54 119.76-21.17L119.76-21.17L119.76-21.17Q118.32-21.79 116.30-21.79L116.30-21.79L116.30-21.79Q114.82-21.79 113.45-21.19L113.45-21.19L113.45-21.19Q112.08-20.59 111.02-19.44L111.02-19.44L111.02-19.44Q109.97-18.29 109.34-16.63L109.34-16.63L109.34-16.63Q108.72-14.98 108.72-12.82L108.72-12.82L108.72-12.82Q108.72-10.75 109.34-9.10L109.34-9.10L109.34-9.10Q109.97-7.44 111.02-6.26L111.02-6.26L111.02-6.26Q112.08-5.09 113.45-4.46L113.45-4.46L113.45-4.46Q114.82-3.84 116.35-3.84" fill="#d51921" stroke="none" stroke-width="none" transform="translate(-62.470001220703125,12.297432250976563)" style="fill: rgb(213, 25, 33);"></path></g></g>
</g>
<style id="breath-ce46cb3f-a17e-4fdb-a447-d6f4f42af807" data-anikit="">@keyframes breath-ce46cb3f-a17e-4fdb-a447-d6f4f42af807
{
  0% {
    animation-timing-function: cubic-bezier(0.9647,0.2413,-0.0705,0.7911);
    transform: scale(0.9099999999999999);
  }
  51% {
    animation-timing-function: cubic-bezier(0.9226,0.2631,-0.0308,0.7628);
    transform: scale(1.02994);
  }
  100% {
    transform: scale(0.9099999999999999);
  }
}</style><style id="breath-ce46cb3f-a17e-4fdb-a447-d6f4f42af807" data-anikit="">@keyframes breath-ce46cb3f-a17e-4fdb-a447-d6f4f42af807
{
  0% {
    animation-timing-function: cubic-bezier(0.9647,0.2413,-0.0705,0.7911);
    transform: scale(0.9099999999999999);
  }
  51% {
    animation-timing-function: cubic-bezier(0.9226,0.2631,-0.0308,0.7628);
    transform: scale(1.02994);
  }
  100% {
    transform: scale(0.9099999999999999);
  }
}</style></svg>